<svg enable-background="new 0 0 24 24" height="512" viewBox="0 0 24 24" width="512" xmlns="http://www.w3.org/2000/svg"><path d="m15.13 24h-7.36c-2.387-3.933-3.786-8.31-4.979-12.34-.181-.663.237-1.382.919-1.382.741.031.728.558 3.428 3.762.322.408.903.106.859-.428-.842-10.368-1.588-10.99-.572-11.473.227-.099.484-.077.701.055.665.403.282.671 1.373 9.806.069.66.955.629.978-.044l.425-10.991c.062-.873.96-1.235 1.511-.746.663.594.248.682.04 11.693-.023.659.855.813.978.132 1.75-8.105 1.245-9.883 2.519-9.883.487 0 .97.504.82 1.196-1.039 8.68-1.725 9.476-.909 9.729.821.21.685-1.15 2.223-5.517.154-.496.759-.635 1.077-.252.127.142-.92 10.589-4.031 16.683z" fill="#ffcc80"/><path d="m3.688 9.218c-1.488 0-2.535 1.456-2.082 2.853.463 1.439 1.657 5.02 2.741 7.179 1.577 3.146 2.499 4.397 2.538 4.448.147.198.373.302.601.302.155 0 .312-.049.446-.148.332-.246.402-.716.156-1.048-.009-.013-.895-1.223-2.402-4.227-1.037-2.066-2.201-5.56-2.653-6.968-.227-.698.679-1.21 1.166-.661l2.714 3.054c.218.245.569.319.866.187.298-.133.477-.443.439-.769l-1.062-9.424c-.039-.253.1-.497.338-.593.215-.086.389-.018.475.032.086.048.234.162.267.352l.964 8.241c.046.388.379.716.772.662.392-.014.705-.326.722-.717l.418-9.848c.067-.886 1.42-.807 1.344.146l-.312 9.646c-.012.39.275.724.662.77.391.037.745-.213.822-.595l1.682-8.223c.2-.725 1.319-.493 1.131.345l-1.269 8.164c-.06.383.183.748.559.843.373.096.762-.113.89-.479l1.632-4.63c.136-.387.766-.296.748.16-.35 7.995-4.251 14.522-4.291 14.588-.214.354-.102.815.253 1.03.352.213.814.103 1.029-.252.169-.278 4.141-6.909 4.507-15.3.068-1.56-1.666-2.492-2.923-1.668l.337-2.172c.569-2.442-3.027-3.696-3.99-1.193l.03-.947c.241-2.878-4.117-3.238-4.339-.322l-.044 1.039c-.975-2.182-4.26-1.174-3.9 1.12l.794 7.043-1.143-1.285c-.703-.793-1.734-.758-1.633-.735z"/></svg>