<svg id="Capa_1" enable-background="new 0 0 512 512" height="512" viewBox="0 0 512 512" width="512" xmlns="http://www.w3.org/2000/svg"><g id="XMLID_340_"><g id="XMLID_169_"><g id="XMLID_111_"><g id="XMLID_114_"><path id="XMLID_238_" d="m269.891 320.44h70.524l28.287-94.761 45.601 36.868c21.522 17.4 26.049 48.423 10.397 71.248l-24.874 36.274c-9.891 14.424-26.257 23.046-43.747 23.046h-72.519c-20.069 0-36.338-16.269-36.338-36.338v-13.668c0-12.52 10.149-22.669 22.669-22.669z" fill="#f2bb88"/></g><g id="XMLID_113_"><path id="XMLID_115_" d="m328.667 391.333c0-24.047-19.494-43.541-43.541-43.541h-37.352l-.552.29v8.695c0 20.069 16.269 36.338 36.338 36.338h44.081z" fill="#9593e6"/></g></g><g id="XMLID_81_"><g id="XMLID_107_"><g id="XMLID_110_"><path id="XMLID_213_" d="m150.675 311.455v-130.076c0-20.069 16.269-36.338 36.338-36.338 20.069 0 36.338 16.269 36.338 36.338v130.076c0 20.069-16.269 36.338-36.338 36.338-20.069 0-36.338-16.269-36.338-36.338z" fill="#f2bb88"/></g><g id="XMLID_109_"><path id="XMLID_211_" d="m223.351 311.455v-130.076c0-20.069 16.269-36.338 36.338-36.338 20.069 0 36.338 16.269 36.338 36.338v130.076c0 20.069-16.269 36.338-36.338 36.338-20.069 0-36.338-16.269-36.338-36.338z" fill="#f2bb88"/></g><g id="XMLID_108_"><path id="XMLID_182_" d="m296.026 311.455v-130.076c0-20.069 16.269-36.338 36.338-36.338 20.069 0 36.338 16.269 36.338 36.338v130.076c0 20.069-16.269 36.338-36.338 36.338-20.069 0-36.338-16.269-36.338-36.338z" fill="#f2bb88"/></g></g><g id="XMLID_105_"><g id="XMLID_106_"><path id="XMLID_177_" d="m78 311.455v-98.394c0-20.069 16.269-36.338 36.338-36.338 20.069 0 36.338 16.269 36.338 36.338v98.394c0 20.069-16.269 36.338-36.338 36.338-20.069 0-36.338-16.269-36.338-36.338z" fill="#f2bb88"/></g></g></g></g><g id="XMLID_209_"><path id="XMLID_220_" d="m443.337 294.692c-2.298-15.742-10.376-29.919-22.747-39.922l-41.889-33.866v-39.525c0-25.551-20.787-46.338-46.337-46.338-14.717 0-27.844 6.905-36.338 17.636-8.494-10.731-21.621-17.636-36.338-17.636s-27.844 6.905-36.338 17.636c-8.494-10.731-21.621-17.636-36.338-17.636-23.476 0-42.917 17.553-45.921 40.222-7.564-5.369-16.793-8.539-26.754-8.539-25.55 0-46.337 20.786-46.337 46.337v4.197c0 5.523 4.478 10 10 10s10-4.477 10-10v-4.197c0-14.522 11.815-26.337 26.338-26.337s26.338 11.815 26.338 26.337v98.394c0 14.522-11.815 26.337-26.338 26.337s-26.338-11.814-26.338-26.337v-4.198c0-5.523-4.478-10-10-10s-10 4.477-10 10v4.198c0 25.551 20.787 46.337 46.338 46.337 14.717 0 27.844-6.905 36.338-17.636 8.494 10.731 21.62 17.636 36.337 17.636s27.844-6.905 36.338-17.636c3.792 4.79 8.502 8.816 13.871 11.806v4.815c0 25.551 20.787 46.338 46.338 46.338h72.519c20.797 0 40.234-10.24 51.995-27.391l24.874-36.274c8.996-13.12 12.686-29.015 10.389-44.758zm-110.973-139.651c14.522 0 26.337 11.815 26.337 26.338v130.076c0 14.522-11.814 26.337-26.337 26.337s-26.338-11.815-26.338-26.337v-130.076c0-14.523 11.816-26.338 26.338-26.338zm-145.351 182.751c-14.522 0-26.337-11.815-26.337-26.337v-130.076c0-14.523 11.814-26.338 26.337-26.338s26.338 11.815 26.338 26.338v130.076c0 14.523-11.816 26.337-26.338 26.337zm46.338-156.413c0-14.523 11.815-26.338 26.338-26.338s26.338 11.815 26.338 26.338v130.076c0 14.522-11.815 26.337-26.338 26.337s-26.338-11.815-26.338-26.337zm23.897 176.413h27.878c15.659 0 28.844 10.789 32.519 25.323h-34.085c-14.183 0-25.777-11.269-26.312-25.323zm159.205-29.652-24.874 36.274c-8.03 11.71-21.302 18.702-35.501 18.702h-18.043c-1.494-9.658-5.58-18.47-11.52-25.705 1.917.243 3.866.382 5.849.382 25.55 0 46.337-20.787 46.337-46.337v-64.832l29.314 23.7c17.346 14.023 21.052 39.42 8.438 57.816z"/><path id="XMLID_225_" d="m256 78c5.522 0 10-4.477 10-10v-58c0-5.523-4.478-10-10-10s-10 4.477-10 10v58c0 5.523 4.478 10 10 10z"/><path id="XMLID_226_" d="m256 443.949c-5.522 0-10 4.477-10 10v48.051c0 5.523 4.478 10 10 10s10-4.477 10-10v-48.051c0-5.523-4.478-10-10-10z"/><path id="XMLID_229_" d="m33 246h-23c-5.522 0-10 4.477-10 10s4.478 10 10 10h23c5.522 0 10-4.477 10-10s-4.478-10-10-10z"/><path id="XMLID_230_" d="m92.525 106.668c1.953 1.953 4.512 2.929 7.071 2.929s5.119-.977 7.071-2.929c3.905-3.905 3.905-10.237 0-14.142l-54.402-54.403c-3.905-3.905-10.235-3.905-14.143 0-3.905 3.905-3.905 10.237 0 14.142z"/><path id="XMLID_231_" d="m432.736 418.594c-3.906-3.905-10.236-3.905-14.143 0-3.905 3.905-3.905 10.237 0 14.143l28.284 28.284c1.953 1.953 4.512 2.929 7.071 2.929s5.118-.976 7.071-2.929c3.905-3.905 3.905-10.237 0-14.143z"/><path id="XMLID_232_" d="m405.814 116.186c2.56 0 5.118-.977 7.071-2.929l60.992-60.993c3.905-3.905 3.905-10.237 0-14.142-3.906-3.905-10.236-3.905-14.143 0l-60.992 60.992c-3.905 3.905-3.905 10.237 0 14.143 1.954 1.953 4.513 2.929 7.072 2.929z"/><path id="XMLID_233_" d="m103.265 394.593-57.336 57.336c-3.905 3.905-3.905 10.237 0 14.143 1.953 1.952 4.511 2.928 7.071 2.928s5.118-.976 7.071-2.929l57.336-57.336c3.905-3.905 3.905-10.237 0-14.143-3.906-3.904-10.236-3.904-14.142.001z"/><path id="XMLID_234_" d="m502 246h-28c-5.522 0-10 4.477-10 10s4.478 10 10 10h28c5.522 0 10-4.477 10-10s-4.478-10-10-10z"/><path id="XMLID_237_" d="m78 272.26c2.63 0 5.21-1.07 7.069-2.93 1.86-1.86 2.931-4.44 2.931-7.07 0-2.64-1.07-5.21-2.931-7.07-1.859-1.86-4.439-2.93-7.069-2.93s-5.21 1.07-7.07 2.93-2.93 4.43-2.93 7.07c0 2.63 1.069 5.21 2.93 7.07 1.86 1.86 4.44 2.93 7.07 2.93z"/></g></g></svg>